<?xml version="1.0" encoding="utf-8"?>
<svg viewBox="104.157 170.818 261.965 258.907" xmlns="http://www.w3.org/2000/svg" xmlns:xlink="http://www.w3.org/1999/xlink">
  <defs>
    <clipPath id="clip-path">
      <rect class="cls-1" x="214.73" y="322.02" width="49.47" height="49.47" rx="8.88" ry="8.88" transform="translate(-175.05 270.89) rotate(-45)"/>
    </clipPath>
    <linearGradient id="linear-gradient" x1="249.84" y1="371.19" x2="229.09" y2="322.31" gradientUnits="userSpaceOnUse">
      <stop offset="0" stop-color="#f864a4"/>
      <stop offset="0.35" stop-color="#d3328f"/>
      <stop offset="0.66" stop-color="#b40a7e"/>
    </linearGradient>
    <radialGradient id="radial-gradient" cx="119.77" cy="346.75" r="124.56" gradientUnits="userSpaceOnUse">
      <stop offset="0" stop-color="#fff" stop-opacity="0.9"/>
      <stop offset="0.5" stop-color="#fff" stop-opacity="0"/>
      <stop offset="1" stop-color="#fff" stop-opacity="0.9"/>
    </radialGradient>
    <clipPath id="clip-path-3">
      <path class="cls-1" d="M239.39,421l27.88,28.28-14.43,14.43a18.93,18.93,0,0,1-26.75,0l-14.5-14.5-89.1-89.11a18.91,18.91,0,0,1,0-26.75l87.85-87.86,15.75-15.75a18.93,18.93,0,0,1,26.75,0l15.68,15.68-29.13,29.72-40.77,41.59a44.47,44.47,0,0,0,0,62.91Z"/>
    </clipPath>
    <linearGradient id="linear-gradient-3" x1="126.33" y1="250.69" x2="287.53" y2="442.81" gradientUnits="userSpaceOnUse">
      <stop offset="0.55" stop-color="#0cf"/>
      <stop offset="0.67" stop-color="#00c8fc"/>
      <stop offset="0.79" stop-color="#00bdf5"/>
      <stop offset="0.91" stop-color="#00a9e8"/>
      <stop offset="0.99" stop-color="#0096db"/>
    </linearGradient>
    <linearGradient id="linear-gradient-4" x1="175.25" y1="214.32" x2="344.21" y2="415.68" gradientUnits="userSpaceOnUse">
      <stop offset="0.23" stop-color="#0cf"/>
      <stop offset="0.45" stop-color="#00c8fd"/>
      <stop offset="0.65" stop-color="#00bdf5"/>
      <stop offset="0.84" stop-color="#00abe9"/>
      <stop offset="1" stop-color="#0096db"/>
    </linearGradient>
    <linearGradient id="linear-gradient-5" x1="108.25" y1="159.78" x2="277.21" y2="361.14" xlink:href="#linear-gradient-4"/>
    <linearGradient id="linear-gradient-6" x1="63.49" y1="95.67" x2="232.45" y2="297.03" xlink:href="#linear-gradient-4"/>
    <linearGradient id="linear-gradient-7" x1="132.33" y1="33.44" x2="293.53" y2="225.56" xlink:href="#linear-gradient-3"/>
    <radialGradient id="radial-gradient-2" cx="119.69" cy="348.09" r="124.56" xlink:href="#radial-gradient"/>
    <clipPath id="clip-path-5">
      <path class="cls-1" d="M356.45,359.2l-58.29,58.29a17.21,17.21,0,0,1-24.23.1l-16.28-16,9.38-9.51,13.13-13.33a44.47,44.47,0,0,0,0-62.91l-14-14.29L258,293.22l17.88-17.37A17.21,17.21,0,0,1,300,276l56.43,56.43A18.93,18.93,0,0,1,356.45,359.2Z"/>
    </clipPath>
    <linearGradient id="linear-gradient-8" x1="152.78" y1="306.59" x2="392.14" y2="310.77" gradientUnits="userSpaceOnUse">
      <stop offset="0.16" stop-color="#7c6db0"/>
      <stop offset="0.37" stop-color="#7768ad"/>
      <stop offset="0.62" stop-color="#6a5aa3"/>
      <stop offset="0.89" stop-color="#554294"/>
      <stop offset="1" stop-color="#4a368c"/>
    </linearGradient>
    <linearGradient id="linear-gradient-9" x1="137.95" y1="270.98" x2="377.34" y2="270.98" gradientUnits="userSpaceOnUse">
      <stop offset="0" stop-color="#e747a4"/>
      <stop offset="0.26" stop-color="#e544a2"/>
      <stop offset="0.45" stop-color="#dd3b9c"/>
      <stop offset="0.62" stop-color="#d02b93"/>
      <stop offset="0.77" stop-color="#bd1585"/>
      <stop offset="0.83" stop-color="#b40a7e"/>
    </linearGradient>
    <linearGradient id="linear-gradient-10" x1="232.87" y1="93.15" x2="406.16" y2="272.59" gradientUnits="userSpaceOnUse">
      <stop offset="0.32" stop-color="#f864a4"/>
      <stop offset="0.51" stop-color="#f662a3"/>
      <stop offset="0.62" stop-color="#f05aa0"/>
      <stop offset="0.7" stop-color="#e64c9a"/>
      <stop offset="0.78" stop-color="#d73892"/>
      <stop offset="0.84" stop-color="#c41f87"/>
      <stop offset="0.86" stop-color="#bc1583"/>
    </linearGradient>
    <style>.cls-1{fill:none;}.cls-2{fill:#d1007e;}.cls-3{clip-path:url(#clip-path);}.cls-15,.cls-16,.cls-17,.cls-4,.cls-5{stroke:#fff;}.cls-10,.cls-11,.cls-12,.cls-15,.cls-16,.cls-17,.cls-4,.cls-5,.cls-8,.cls-9{stroke-miterlimit:10;}.cls-10,.cls-11,.cls-12,.cls-4,.cls-8,.cls-9{stroke-width:0.5px;}.cls-4,.cls-5{fill:url(#linear-gradient);}.cls-15,.cls-16,.cls-17,.cls-5{stroke-width:0.25px;}.cls-13,.cls-6{opacity:0.5;}.cls-6{fill:url(#radial-gradient);}.cls-7{clip-path:url(#clip-path-3);}.cls-10,.cls-11,.cls-12,.cls-8,.cls-9{stroke:#fcfafb;}.cls-8{fill:url(#linear-gradient-3);}.cls-9{fill:url(#linear-gradient-4);}.cls-10{fill:url(#linear-gradient-5);}.cls-11{fill:url(#linear-gradient-6);}.cls-12{fill:url(#linear-gradient-7);}.cls-13{fill:url(#radial-gradient-2);}.cls-14{clip-path:url(#clip-path-5);}.cls-15{fill:url(#linear-gradient-8);}.cls-16{fill:url(#linear-gradient-9);}.cls-17{fill:url(#linear-gradient-10);}</style>
  </defs>
  <g id="Layer_2" data-name="Layer 2" transform="matrix(1.008131, 0, 0, 1, -5.356682, -47.61496)" style="">
    <g id="Layer_1-2" data-name="Layer 1">
      <rect class="cls-2" x="214.73" y="322.02" width="49.47" height="49.47" rx="8.88" ry="8.88" transform="translate(-175.05 270.89) rotate(-45)"/>
      <g class="cls-3">
        <rect class="cls-4" x="219.21" y="326.5" width="40.5" height="40.5"/>
      </g>
      <g class="cls-3">
        <rect class="cls-5" x="219.21" y="326.5" width="40.5" height="40.5"/>
        <ellipse class="cls-6" cx="119.77" cy="346.75" rx="119.69" ry="129.25"/>
      </g>
      <g class="cls-7">
        <ellipse class="cls-8" cx="206.93" cy="346.75" rx="119.69" ry="129.25"/>
        <ellipse class="cls-9" cx="259.73" cy="315" rx="134.46" ry="129.25"/>
        <ellipse class="cls-10" cx="192.73" cy="260.46" rx="134.46" ry="129.25"/>
        <ellipse class="cls-11" cx="147.97" cy="196.35" rx="134.46" ry="129.25"/>
        <ellipse class="cls-12" cx="212.93" cy="129.5" rx="119.69" ry="129.25"/>
      </g>
      <g class="cls-7">
        <ellipse class="cls-13" cx="119.69" cy="348.09" rx="119.69" ry="129.25"/>
      </g>
      <g class="cls-14">
        <ellipse class="cls-15" cx="272.46" cy="308.68" rx="119.69" ry="129.25"/>
        <ellipse class="cls-16" cx="257.65" cy="270.98" rx="119.69" ry="129.25"/>
        <ellipse class="cls-17" cx="319.51" cy="182.87" rx="119.69" ry="129.25"/>
      </g>
    </g>
  </g>
</svg>