<?xml version="1.0" encoding="utf-8"?>
<svg viewBox="39.968 181.184 305.063 280.195" xmlns="http://www.w3.org/2000/svg" xmlns:xlink="http://www.w3.org/1999/xlink">
  <defs>
    <clipPath id="clip-path">
      <rect class="cls-1" x="178.38" y="267.55" width="41.09" height="41.09" rx="8.88" ry="8.88" transform="translate(-145.45 225.04) rotate(-45)"/>
    </clipPath>
    <linearGradient id="linear-gradient" x1="207.55" y1="308.4" x2="190.31" y2="267.79" gradientUnits="userSpaceOnUse">
      <stop offset="0" stop-color="#f864a4"/>
      <stop offset="0.35" stop-color="#d3328f"/>
      <stop offset="0.66" stop-color="#b40a7e"/>
    </linearGradient>
    <radialGradient id="radial-gradient" cx="99.49" cy="288.09" r="103.48" gradientUnits="userSpaceOnUse">
      <stop offset="0" stop-color="#fff" stop-opacity="0.9"/>
      <stop offset="0.5" stop-color="#fff" stop-opacity="0"/>
      <stop offset="1" stop-color="#fff" stop-opacity="0.9"/>
    </radialGradient>
    <clipPath id="clip-path-3">
      <path class="cls-1" d="M198.86,349.8,222,373.29l-12,12a15.72,15.72,0,0,1-22.22,0l-12-12-74-74a15.71,15.71,0,0,1,0-22.22l73-73,13.08-13.08a15.72,15.72,0,0,1,22.22,0l13,13-24.2,24.69L165,263.18a36.94,36.94,0,0,0,0,52.26Z"/>
    </clipPath>
    <linearGradient id="linear-gradient-3" x1="104.94" y1="208.3" x2="238.86" y2="367.89" gradientUnits="userSpaceOnUse">
      <stop offset="0.55" stop-color="#0cf"/>
      <stop offset="0.67" stop-color="#00c8fc"/>
      <stop offset="0.79" stop-color="#00bdf5"/>
      <stop offset="0.91" stop-color="#00a9e8"/>
      <stop offset="0.99" stop-color="#0096db"/>
    </linearGradient>
    <linearGradient id="linear-gradient-4" x1="145.58" y1="178.08" x2="285.94" y2="345.36" gradientUnits="userSpaceOnUse">
      <stop offset="0.23" stop-color="#0cf"/>
      <stop offset="0.45" stop-color="#00c8fd"/>
      <stop offset="0.65" stop-color="#00bdf5"/>
      <stop offset="0.84" stop-color="#00abe9"/>
      <stop offset="1" stop-color="#0096db"/>
    </linearGradient>
    <linearGradient id="linear-gradient-5" x1="89.93" y1="132.77" x2="230.28" y2="300.05" xlink:href="#linear-gradient-4"/>
    <linearGradient id="linear-gradient-6" x1="52.75" y1="79.52" x2="193.1" y2="246.79" xlink:href="#linear-gradient-4"/>
    <linearGradient id="linear-gradient-7" x1="109.93" y1="27.82" x2="243.84" y2="187.42" xlink:href="#linear-gradient-3"/>
    <radialGradient id="radial-gradient-2" cx="99.43" cy="289.21" r="103.48" xlink:href="#radial-gradient"/>
    <clipPath id="clip-path-5">
      <path class="cls-1" d="M296.11,298.43l-48.42,48.42a14.29,14.29,0,0,1-20.13.09L214,333.64l7.79-7.9,10.91-11.07a36.94,36.94,0,0,0,0-52.26L221.1,250.53l-6.79-6.91,14.85-14.43a14.29,14.29,0,0,1,20.07.14l46.88,46.88A15.72,15.72,0,0,1,296.11,298.43Z"/>
    </clipPath>
    <linearGradient id="linear-gradient-8" x1="126.92" y1="254.73" x2="325.76" y2="258.2" gradientUnits="userSpaceOnUse">
      <stop offset="0.16" stop-color="#7c6db0"/>
      <stop offset="0.37" stop-color="#7768ad"/>
      <stop offset="0.62" stop-color="#6a5aa3"/>
      <stop offset="0.89" stop-color="#554294"/>
      <stop offset="1" stop-color="#4a368c"/>
    </linearGradient>
    <linearGradient id="linear-gradient-9" x1="114.6" y1="225.15" x2="313.46" y2="225.15" gradientUnits="userSpaceOnUse">
      <stop offset="0" stop-color="#e747a4"/>
      <stop offset="0.26" stop-color="#e544a2"/>
      <stop offset="0.45" stop-color="#dd3b9c"/>
      <stop offset="0.62" stop-color="#d02b93"/>
      <stop offset="0.77" stop-color="#bd1585"/>
      <stop offset="0.83" stop-color="#b40a7e"/>
    </linearGradient>
    <linearGradient id="linear-gradient-10" x1="193.45" y1="77.42" x2="337.4" y2="226.49" gradientUnits="userSpaceOnUse">
      <stop offset="0.32" stop-color="#f864a4"/>
      <stop offset="0.51" stop-color="#f662a3"/>
      <stop offset="0.62" stop-color="#f05aa0"/>
      <stop offset="0.7" stop-color="#e64c9a"/>
      <stop offset="0.78" stop-color="#d73892"/>
      <stop offset="0.84" stop-color="#c41f87"/>
      <stop offset="0.86" stop-color="#bc1583"/>
    </linearGradient>
    <style>.cls-1{fill:none;}.cls-2{fill:#2cb4ea;}.cls-3{fill:#fff;}.cls-4{fill:#d1007e;}.cls-5{clip-path:url(#clip-path);}.cls-17,.cls-18,.cls-19,.cls-6,.cls-7{stroke:#fff;}.cls-10,.cls-11,.cls-12,.cls-13,.cls-14,.cls-17,.cls-18,.cls-19,.cls-6,.cls-7{stroke-miterlimit:10;}.cls-10,.cls-11,.cls-12,.cls-13,.cls-14,.cls-6{stroke-width:0.5px;}.cls-6,.cls-7{fill:url(#linear-gradient);}.cls-17,.cls-18,.cls-19,.cls-7{stroke-width:0.25px;}.cls-15,.cls-8{opacity:0.5;}.cls-8{fill:url(#radial-gradient);}.cls-9{clip-path:url(#clip-path-3);}.cls-10,.cls-11,.cls-12,.cls-13,.cls-14{stroke:#fcfafb;}.cls-10{fill:url(#linear-gradient-3);}.cls-11{fill:url(#linear-gradient-4);}.cls-12{fill:url(#linear-gradient-5);}.cls-13{fill:url(#linear-gradient-6);}.cls-14{fill:url(#linear-gradient-7);}.cls-15{fill:url(#radial-gradient-2);}.cls-16{clip-path:url(#clip-path-5);}.cls-17{fill:url(#linear-gradient-8);}.cls-18{fill:url(#linear-gradient-9);}.cls-19{fill:url(#linear-gradient-10);}</style>
  </defs>
  <g id="Layer_2" data-name="Layer 2">
    <g id="Layer_1-2" data-name="Layer 1">
      <path class="cls-2" d="M231.22,427.69H209.3a5.5,5.5,0,0,0-5.48,5.48v5.48a5.5,5.5,0,0,0,5.48,5.48h16.44v5.48H203.82v5.48h21.92a5.5,5.5,0,0,0,5.48-5.48v-5.48a5.5,5.5,0,0,0-5.48-5.48H209.3v-5.48h21.92Z"/>
      <path class="cls-2" d="M255.88,449.61H250.4V427.69h-5.48v21.92h-5.48V427.69H234v21.92a5.5,5.5,0,0,0,5.48,5.48h16.44a5.5,5.5,0,0,0,5.48-5.48V427.69h-5.48Z"/>
      <path class="cls-2" d="M269.58,433.17H286v5.48H269.58Zm0-5.48a5.5,5.5,0,0,0-5.48,5.48v21.92h5.48v-11H286v11h5.48V433.17a5.5,5.5,0,0,0-5.48-5.48Z"/>
      <path class="cls-2" d="M299.73,438.65v-5.48h16.44v5.48Zm16.44-11H294.25v27.4h5.48v-11h16.44a5.5,5.5,0,0,0,5.48-5.48v-5.48A5.5,5.5,0,0,0,316.17,427.69Z"/>
      <path class="cls-3" d="M81.68,438.09v-5.48H98.12v5.48Zm16.44-11H76.2v27.4h5.48v-11H98.12a5.5,5.5,0,0,0,5.48-5.48v-5.48A5.5,5.5,0,0,0,98.12,427.13Z"/>
      <path class="cls-3" d="M111.81,432.61h16.44V449H111.81Zm16.44,21.92a5.5,5.5,0,0,0,5.48-5.48V432.61a5.5,5.5,0,0,0-5.48-5.48H111.81a5.5,5.5,0,0,0-5.48,5.48V449a5.5,5.5,0,0,0,5.48,5.48Z"/>
      <path class="cls-3" d="M163.85,427.13H141.93a5.5,5.5,0,0,0-5.48,5.48V449a5.5,5.5,0,0,0,5.48,5.48h16.44a5.5,5.5,0,0,0,5.48-5.48v-11H147.41v5.48h11V449H141.93V432.61h21.92Z"/>
      <path class="cls-3" d="M172.06,432.61H188.5V449H172.06Zm16.44,21.92A5.5,5.5,0,0,0,194,449V432.61a5.5,5.5,0,0,0-5.48-5.48H172.06a5.5,5.5,0,0,0-5.48,5.48V449a5.5,5.5,0,0,0,5.48,5.48Z"/>
      <rect class="cls-4" x="178.38" y="267.55" width="41.09" height="41.09" rx="8.88" ry="8.88" transform="translate(-145.45 225.04) rotate(-45)"/>
      <g class="cls-5">
        <rect class="cls-6" x="182.1" y="271.27" width="33.64" height="33.64"/>
      </g>
      <g class="cls-5">
        <rect class="cls-7" x="182.1" y="271.27" width="33.64" height="33.64"/>
        <ellipse class="cls-8" cx="99.49" cy="288.09" rx="99.43" ry="107.37"/>
      </g>
      <g class="cls-9">
        <ellipse class="cls-10" cx="171.9" cy="288.09" rx="99.43" ry="107.37"/>
        <ellipse class="cls-11" cx="215.76" cy="261.72" rx="111.7" ry="107.37"/>
        <ellipse class="cls-12" cx="160.1" cy="216.41" rx="111.7" ry="107.37"/>
        <ellipse class="cls-13" cx="122.92" cy="163.15" rx="111.7" ry="107.37"/>
        <ellipse class="cls-14" cx="176.88" cy="107.62" rx="99.43" ry="107.37"/>
      </g>
      <g class="cls-9">
        <ellipse class="cls-15" cx="99.43" cy="289.21" rx="99.43" ry="107.37"/>
      </g>
      <g class="cls-16">
        <ellipse class="cls-17" cx="226.34" cy="256.47" rx="99.43" ry="107.37"/>
        <ellipse class="cls-18" cx="214.03" cy="225.15" rx="99.43" ry="107.37"/>
        <ellipse class="cls-19" cx="265.42" cy="151.96" rx="99.43" ry="107.37"/>
      </g>
    </g>
  </g>
</svg>