<svg width="17" height="16" viewBox="0 0 17 16" fill="none" xmlns="http://www.w3.org/2000/svg">
    <path fill-rule="evenodd" clip-rule="evenodd"
          d="M9.03033 13.8637C8.81066 14.0834 8.48863 14.1383 8.21778 14.0285C8.12749 13.9918 8.04289 13.9369 7.96967 13.8637C7.9695 13.8635 7.96932 13.8634 7.96915 13.8632L3.96967 9.8637C3.67678 9.57081 3.67678 9.09594 3.96967 8.80304C4.26256 8.51015 4.73744 8.51015 5.03033 8.80304L7.75 11.5227L7.75 2.6667C7.75 2.25249 8.08579 1.9167 8.5 1.9167C8.91421 1.9167 9.25 2.25249 9.25 2.6667L9.25 11.5227L11.9697 8.80304C12.2626 8.51015 12.7374 8.51015 13.0303 8.80304C13.3232 9.09594 13.3232 9.57081 13.0303 9.8637L9.03033 13.8637Z"
          fill="rgba(255, 255, 255, 0.6)"/>
</svg>
