<svg id="discord_hover" viewBox="0 0 44 44" fill="none" xmlns="http://www.w3.org/2000/svg">
    <path d="M24.1041 15.6829H24.0741L23.8721 15.8829C25.9451 16.4829 26.9481 17.4199 26.9481 17.4199C25.6121 16.7519 24.4081 16.4179 23.2041 16.2829C22.3341 16.1479 21.4641 16.2189 20.7291 16.2829H20.5291C20.0591 16.2829 19.0591 16.4829 17.7191 17.0179C17.2521 17.2209 16.9841 17.3539 16.9841 17.3539C16.9841 17.3539 17.9861 16.3519 20.1941 15.8169L20.0591 15.6819C20.0591 15.6819 18.3871 15.6179 16.5821 16.9519C16.5821 16.9519 14.7771 20.0959 14.7771 23.9719C14.7771 23.9719 15.7771 25.7119 18.5201 25.7779C18.5201 25.7779 18.9201 25.2449 19.3251 24.7759C17.7851 24.3079 17.1851 23.3719 17.1851 23.3719C17.1851 23.3719 17.3191 23.4379 17.5201 23.5719H17.5801C17.6101 23.5719 17.6241 23.5869 17.6401 23.6019V23.6079C17.6561 23.6239 17.6701 23.6379 17.7001 23.6379C18.0301 23.7739 18.3601 23.9079 18.6301 24.0379C19.0961 24.2399 19.6951 24.4409 20.4301 24.5739C21.3601 24.7089 22.4261 24.7739 23.6401 24.5739C24.2401 24.4389 24.8401 24.3069 25.4401 24.0389C25.8301 23.8389 26.3101 23.6389 26.8371 23.3019C26.8371 23.3019 26.2371 24.2379 24.6321 24.7059C24.9621 25.1719 25.4271 25.7059 25.4271 25.7059C28.1711 25.6459 29.2371 23.9059 29.2971 23.9799C29.2971 20.1099 27.4821 16.9599 27.4821 16.9599C25.8471 15.7459 24.3171 15.6999 24.0471 15.6999L24.1031 15.6799L24.1041 15.6829ZM24.2721 20.0959C24.9751 20.0959 25.5421 20.6959 25.5421 21.4309C25.5421 22.1709 24.9721 22.7709 24.2721 22.7709C23.5721 22.7709 23.0021 22.1709 23.0021 21.4369C23.0041 20.6969 23.5751 20.0989 24.2721 20.0989V20.0959ZM19.7291 20.0959C20.4291 20.0959 20.9951 20.6959 20.9951 21.4309C20.9951 22.1709 20.4251 22.7709 19.7251 22.7709C19.0251 22.7709 18.4551 22.1709 18.4551 21.4369C18.4551 20.6969 19.0251 20.0989 19.7251 20.0989L19.7291 20.0959Z"
          fill="white"/>
</svg>
