<svg id="twitter" viewBox="0 0 44 45" fill="none" xmlns="http://www.w3.org/2000/svg">
    <path d="M35.2004 14.454C34.27 14.8407 33.2575 15.1189 32.2146 15.2273C33.2974 14.6076 34.1082 13.6287 34.495 12.474C33.479 13.0563 32.3659 13.4646 31.2052 13.6808C30.72 13.1812 30.1333 12.7832 29.4815 12.5116C28.8297 12.2399 28.1269 12.1006 27.4167 12.1021C24.5434 12.1021 22.2327 14.3457 22.2327 17.0989C22.2327 17.4856 22.2813 17.8722 22.3604 18.2442C18.0581 18.0274 14.2209 16.0474 11.67 13.0159C11.2051 13.7807 10.9616 14.6515 10.9646 15.5378C10.9646 17.2717 11.8798 18.8007 13.2753 19.6999C12.4529 19.6687 11.6497 19.4509 10.9311 19.0643V19.1258C10.9311 21.5539 12.7129 23.5661 15.0875 24.0289C14.6416 24.1405 14.183 24.1976 13.7223 24.1988C13.3848 24.1988 13.0656 24.1666 12.7433 24.1227C13.4 26.1026 15.3125 27.5408 17.5898 27.5876C15.8081 28.9321 13.5764 29.7229 11.1531 29.7229C10.7183 29.7229 10.3169 29.7082 9.90039 29.6614C12.199 31.0819 14.9263 31.9021 17.8635 31.9021C27.3985 31.9021 32.616 24.2925 32.616 17.6877C32.616 17.4709 32.616 17.2542 32.6008 17.0374C33.6102 16.3257 34.495 15.444 35.2004 14.454Z"
          fill="currentColor"/>
</svg>
